<svg width="414" height="298" viewBox="0 0 414 298" fill="none" xmlns="http://www.w3.org/2000/svg">
<rect width="414" height="266" fill="#99CCEE"/>
<g opacity="0.15">
<path fill-rule="evenodd" clip-rule="evenodd" d="M101.363 113.757L125.886 109.053C131.179 108.037 136.373 108.104 141.461 109.252C146.552 110.402 151.207 112.408 155.428 115.27C159.649 118.133 163.233 121.715 166.187 126.016C167.995 128.655 169.437 131.479 170.518 134.489C170.146 126.139 172.434 118.307 177.392 110.998C183.387 101.962 191.789 96.4094 202.6 94.3353C213.337 92.2755 223.197 94.3241 232.188 100.486C238.795 104.92 243.537 110.542 246.437 117.345L240.623 87.0406L286.871 118.4L318.345 72.1299L324.15 102.392C324.32 95.0193 326.612 88.0586 331.045 81.5202C337.042 72.4832 345.447 66.9304 356.259 64.8562C366.994 62.7966 376.852 64.8459 385.843 71.007C389.657 73.5644 392.845 76.5283 395.426 79.8765L370.893 -48L81 7.61536L101.363 113.757ZM371.148 142.466C360.411 144.525 350.548 142.477 341.557 136.315C335.029 131.936 330.327 126.333 327.436 119.521L333.233 149.738L320.146 152.249L311.243 105.84L290.389 136.739L259.471 115.772L268.375 162.182L255.512 164.65L249.716 134.435C249.548 141.875 247.218 148.826 242.701 155.281C236.628 164.332 228.226 169.885 217.489 171.945C206.756 174.004 196.893 171.956 187.904 165.793C180.599 160.895 175.576 154.471 172.826 146.534C172.932 149.723 172.638 152.875 171.937 155.987C170.785 161.078 168.8 165.732 165.975 169.943C163.151 174.157 159.569 177.742 155.227 180.7C150.886 183.662 146.069 185.646 140.775 186.662L116.252 191.367L136.615 297.508L426.508 241.893L401.996 114.123C400.836 118.181 398.964 122.077 396.356 125.803C390.283 134.854 381.884 140.406 371.148 142.466ZM155.112 162.578C157.004 159.74 158.321 156.63 159.06 153.24C159.803 149.849 159.837 146.406 159.165 142.9C158.493 139.398 157.186 136.207 155.242 133.335C153.3 130.459 150.907 128.06 148.064 126.13C145.218 124.203 142.102 122.869 138.715 122.128C135.327 121.385 131.878 121.352 128.375 122.024L115.403 124.513L125.315 176.178L138.286 173.69C141.865 173.003 145.094 171.689 147.966 169.745C150.839 167.803 153.222 165.414 155.112 162.578ZM385.446 118.503C389.529 112.387 390.893 105.789 389.534 98.7039C388.176 91.6236 384.473 86.0348 378.431 81.9353C372.39 77.8386 365.83 76.4693 358.748 77.828C351.665 79.1868 346.035 82.8947 341.864 88.9506C337.842 94.9805 336.514 101.535 337.872 108.615C339.231 115.7 342.898 121.333 348.879 125.518C354.982 129.529 361.577 130.853 368.66 129.494C375.742 128.135 381.336 124.473 385.446 118.503ZM231.794 147.981C235.876 141.865 237.238 135.268 235.879 128.182C234.52 121.102 230.82 115.513 224.778 111.413C218.734 107.317 212.172 105.948 205.089 107.307C198.006 108.666 192.379 112.373 188.208 118.429C184.186 124.459 182.855 131.014 184.213 138.094C185.572 145.18 189.242 150.811 195.223 154.997C201.326 159.008 207.918 160.332 215.001 158.973C222.084 157.614 227.681 153.951 231.794 147.981Z" fill="white"/>
</g>
</svg>
