<svg width="35" height="35" viewBox="0 0 35 35" fill="none" xmlns="http://www.w3.org/2000/svg">
<path fill-rule="evenodd" clip-rule="evenodd" d="M0 12.815H2.96075C3.59982 12.815 4.20315 12.9388 4.77001 13.1861C5.33718 13.4338 5.83435 13.7714 6.26198 14.199C6.68954 14.6266 7.02684 15.1238 7.27481 15.6906C7.42636 16.0383 7.53115 16.3994 7.58985 16.7741C7.733 15.7935 8.17445 14.9325 8.91505 14.1922C9.81507 13.2738 10.9175 12.815 12.2228 12.815C13.5191 12.815 14.6215 13.2738 15.5308 14.1922C16.2011 14.8561 16.6278 15.6168 16.8135 16.4738V12.815L21.4983 17.4999L26.1971 12.815V16.4687C26.3815 15.6139 26.804 14.8545 27.4663 14.1922C28.3665 13.2738 29.4693 12.815 30.7746 12.815C32.0708 12.815 33.1729 13.2738 34.0823 14.1921C34.4693 14.5752 34.7743 14.9915 35 15.4391V0H0V12.815ZM30.7746 22.1851C29.4783 22.1851 28.3756 21.7262 27.4662 20.8078C26.8039 20.152 26.3815 19.3946 26.1971 18.5367V22.185H24.617V16.5818L21.4983 19.7141L18.3664 16.5818V22.1851H16.8135V18.5371C16.6277 19.3997 16.2011 20.1571 15.5308 20.8078C14.6215 21.7262 13.5191 22.1851 12.2228 22.1851C10.9269 22.1851 9.82411 21.7262 8.91509 20.8078C8.17379 20.0742 7.73237 19.2139 7.58946 18.2282C7.53052 18.602 7.42598 18.9625 7.27481 19.3092C7.02684 19.8763 6.69178 20.3739 6.26877 20.8012C5.84573 21.2287 5.34848 21.5662 4.7768 21.8136C4.20514 22.0616 3.59992 22.1851 2.96079 22.1851H0V35H35V19.5738C34.7743 20.0204 34.4692 20.4322 34.0823 20.8078C33.1729 21.7262 32.0708 22.1851 30.7746 22.1851ZM5.16827 19.7009C5.45205 19.4126 5.67486 19.0798 5.8367 18.7016C5.99892 18.3234 6.07984 17.9232 6.07984 17.4998C6.07984 17.0771 5.99892 16.6763 5.8367 16.2984C5.67482 15.9202 5.44977 15.5874 5.16183 15.2991C4.8735 15.0111 4.54048 14.7861 4.16251 14.6242C3.78462 14.462 3.3838 14.381 2.96075 14.381H1.39464V20.6189H2.96075C3.39283 20.6189 3.79816 20.5379 4.17606 20.3757C4.55399 20.2138 4.88481 19.9888 5.16827 19.7009ZM32.975 19.7141C33.587 19.0931 33.8933 18.3553 33.8933 17.4999C33.8933 16.645 33.587 15.9115 32.975 15.2991C32.363 14.6871 31.6297 14.3811 30.7747 14.3811C29.9195 14.3811 29.1811 14.6871 28.5601 15.2991C27.9571 15.9115 27.6559 16.645 27.6559 17.4999C27.6559 18.3553 27.9571 19.0931 28.5601 19.7141C29.1811 20.3175 29.9195 20.619 30.7747 20.619C31.6297 20.619 32.363 20.3175 32.975 19.7141ZM14.4239 19.7141C15.0358 19.0931 15.3418 18.3553 15.3418 17.4999C15.3418 16.645 15.0358 15.9115 14.4239 15.2991C13.8115 14.6871 13.078 14.3811 12.2228 14.3811C11.3676 14.3811 10.6296 14.6871 10.0085 15.2991C9.40551 15.9115 9.10405 16.645 9.10405 17.4999C9.10405 18.3553 9.40551 19.0931 10.0085 19.7141C10.6296 20.3175 11.3676 20.619 12.2228 20.619C13.078 20.619 13.8115 20.3175 14.4239 19.7141Z" fill="#9BCBEA"/>
</svg>
