<svg width="24" height="24" viewBox="0 0 24 24" fill="none" xmlns="http://www.w3.org/2000/svg">
<g id="domo Large Logo nlu">
<path id="Icon Path" fill-rule="evenodd" clip-rule="evenodd" d="M0 8.78741H2.03023C2.46845 8.78741 2.88216 8.87232 3.27086 9.04193C3.65978 9.21175 4.0007 9.44326 4.29393 9.73644C4.58712 10.0297 4.8184 10.3706 4.98844 10.7593C5.09236 10.9977 5.16422 11.2453 5.20447 11.5022C5.30263 10.8298 5.60534 10.2395 6.11318 9.73178C6.73034 9.10205 7.48626 8.78741 8.38132 8.78741C9.27021 8.78741 10.0262 9.10205 10.6497 9.73178C11.1093 10.187 11.4019 10.7087 11.5292 11.2963V8.78741L14.7417 11.9999L17.9637 8.78741V11.2928C18.0902 10.7067 18.3799 10.186 18.834 9.73178C19.4513 9.10205 20.2075 8.78741 21.1026 8.78741C21.9914 8.78741 22.7471 9.10205 23.3707 9.73176C23.6361 9.99439 23.8452 10.2799 24 10.5868V0H0V8.78741ZM21.1026 15.2126C20.2137 15.2126 19.4575 14.898 18.834 14.2682C18.3798 13.8185 18.0901 13.2991 17.9637 12.7109V15.2125H16.8802V11.3704L14.7417 13.5182L12.5941 11.3704V15.2126H11.5292V12.7112C11.4019 13.3027 11.1093 13.822 10.6497 14.2682C10.0262 14.898 9.27023 15.2126 8.38134 15.2126C7.49274 15.2126 6.73653 14.898 6.1132 14.2682C5.60488 13.7652 5.30219 13.1753 5.2042 12.4993C5.16379 12.7557 5.0921 13.0028 4.98844 13.2406C4.8184 13.6295 4.58865 13.9707 4.29859 14.2637C4.0085 14.5568 3.66753 14.7883 3.27552 14.9579C2.88353 15.128 2.46852 15.2126 2.03025 15.2126H0V24H24V13.422C23.8452 13.7283 23.636 14.0107 23.3707 14.2682C22.7472 14.898 21.9914 15.2126 21.1026 15.2126ZM3.54396 13.5092C3.73855 13.3115 3.89133 13.0833 4.00231 12.824C4.11355 12.5646 4.16904 12.2902 4.16904 11.9999C4.16904 11.71 4.11355 11.4352 4.00231 11.176C3.89131 10.9167 3.73699 10.6885 3.53954 10.4908C3.34183 10.2933 3.11347 10.139 2.85429 10.028C2.59517 9.9168 2.32032 9.86129 2.03023 9.86129H0.956327V14.1386H2.03023C2.32651 14.1386 2.60445 14.0832 2.86358 13.9719C3.12273 13.8609 3.34958 13.7066 3.54396 13.5092ZM22.6114 13.5182C23.0311 13.0924 23.2411 12.5865 23.2411 11.9999C23.2411 11.4137 23.0311 10.9107 22.6114 10.4908C22.1918 10.0712 21.6889 9.86134 21.1026 9.86134C20.5162 9.86134 20.0099 10.0712 19.5841 10.4908C19.1706 10.9107 18.9641 11.4137 18.9641 11.9999C18.9641 12.5865 19.1706 13.0924 19.5841 13.5182C20.0099 13.932 20.5162 14.1387 21.1026 14.1387C21.689 14.1387 22.1918 13.932 22.6114 13.5182ZM9.89065 13.5182C10.3103 13.0924 10.5201 12.5865 10.5201 11.9999C10.5201 11.4137 10.3103 10.9107 9.89065 10.4908C9.47075 10.0712 8.96776 9.86134 8.38132 9.86134C7.79495 9.86134 7.28884 10.0712 6.86299 10.4908C6.44949 10.9107 6.24278 11.4137 6.24278 11.9999C6.24278 12.5865 6.44949 13.0924 6.86299 13.5182C7.28884 13.932 7.79495 14.1387 8.38132 14.1387C8.96776 14.1387 9.47077 13.932 9.89065 13.5182Z" fill="#9BCBEA"/>
</g>
</svg>
